<?xml version="1.0" encoding="utf-8"?>
<!-- Generator: Adobe Illustrator 23.0.2, SVG Export Plug-In . SVG Version: 6.00 Build 0)  -->
<svg version="1.1" id="Lager_1" xmlns="http://www.w3.org/2000/svg" xmlns:xlink="http://www.w3.org/1999/xlink" x="0px" y="0px"
	 viewBox="0 0 315.93 298.81" style="enable-background:new 0 0 315.93 298.81;" xml:space="preserve">
<style type="text/css">
	.st0{fill:#FFFFFF;}
</style>
<g>
	<path class="st0" d="M99.69,155.98l13.16-83.17c-5.18,0-14.1,0-14.1,0c-6.64,0-15.08-3.67-17.61-10.49
		c-0.84-2.27-2.73-10.24,8.18-17.94c3.85-2.7,6.42-5.69,6.91-7.99c0.5-2.39-0.13-4.49-1.82-6.1c-2.42-2.29-7.07-3.55-13.1-3.55
		c-10.14,0-17.25,5.85-17.9,10.04c-0.47,3.11,1.94,5.62,4.04,7.16c6.29,4.66,7.78,11.53,3.87,17.94
		c-4.01,6.61-12.65,10.91-22.04,10.96c0,0-9.17-0.02-14.36-0.03c-1.24,8.11-20.78,132.31-22.28,142.08H90.7
		c0.68-4.41,4.32-27.85,9.22-58.93H99.69z"/>
	<path class="st0" d="M204.23,0h-79.45l-10.64,67.29l13.51,0.03c7.39-0.04,14.35-3.37,17.35-8.31c0.96-1.57,1.35-2.99,1.35-4.28
		c0-2.79-1.87-4.89-3.78-6.3c-5.24-3.88-6.34-8.05-6.34-10.88c0-0.6,0.05-1.13,0.12-1.59c1.1-7.12,10.75-14.75,23.37-14.75
		c7.56,0,13.41,1.76,16.9,5.08c3.07,2.91,4.32,7.01,3.44,11.26c-1.07,5.07-6.19,9.31-9.14,11.39c-7.68,5.41-6.67,10.14-6.18,11.46
		c1.58,4.24,7.67,6.87,12.42,6.87h20.59c0,0,0,0.03-0.01,0.07c28,0.22,43.05,13.09,38.31,43.07c-4.41,27.85-25.77,39.85-51.26,40.14
		l-10.12,64.38h14.93c62.93,0,114.33-40.44,124.43-104.23C326.51,31.66,276.27,0,204.23,0z"/>
	<path class="st0" d="M204.23,0h-79.45l-10.64,67.29l13.51,0.03c7.39-0.04,14.35-3.37,17.35-8.31c0.96-1.57,1.35-2.99,1.35-4.28
		c0-2.79-1.87-4.89-3.78-6.3c-5.24-3.88-6.34-8.05-6.34-10.88c0-0.6,0.05-1.13,0.12-1.59c1.1-7.12,10.75-14.75,23.37-14.75
		c7.56,0,13.41,1.76,16.9,5.08c3.07,2.91,4.32,7.01,3.44,11.26c-1.07,5.07-6.19,9.31-9.14,11.39c-7.68,5.41-6.67,10.14-6.18,11.46
		c1.58,4.24,7.67,6.87,12.42,6.87h20.59c0,0,0,0.03-0.01,0.07c28,0.22,43.05,13.09,38.31,43.07c-4.41,27.85-25.77,39.85-51.26,40.14
		l-10.12,64.38h14.93c62.93,0,114.33-40.44,124.43-104.23C326.51,31.66,276.27,0,204.23,0z"/>
	<path class="st0" d="M8.44,243.59h31.88c13.58,0,16.91,6.88,15.94,13.18c-0.79,5.12-4.25,8.87-10.31,11.35
		c7.63,2.88,10.6,7.43,9.51,14.46c-1.37,8.87-9.11,15.5-19.18,15.5H0L8.44,243.59z M29.55,266.21c6.23,0,9.14-3.28,9.75-7.19
		c0.64-4.15-1.3-7.11-7.53-7.11h-5.51l-2.22,14.3H29.55z M26.14,289.78c6.39,0,10.15-2.56,10.98-7.91c0.71-4.56-1.9-7.35-8.13-7.35
		h-6.23l-2.36,15.26H26.14z"/>
	<path class="st0" d="M100.14,298.65c-8.32,0.56-12.34-0.32-14.34-3.92c-4.41,2.72-9.26,4.08-14.45,4.08
		c-9.43,0-12.67-4.87-11.83-10.31c0.4-2.56,1.91-5.11,4.31-7.19c5.17-4.47,17.97-5.12,22.98-8.55c0.43-3.83-1.12-5.2-5.83-5.2
		c-5.51,0-10.11,1.84-17.98,7.19l1.92-12.39c6.84-4.95,13.41-7.18,21.01-7.18c9.75,0,18.32,3.99,16.67,14.62l-1.86,11.99
		c-0.66,4.24-0.53,5.51,4.17,5.6L100.14,298.65z M85.72,279.79c-4.43,2.8-12.59,2.32-13.47,8.07c-0.42,2.72,1.27,4.72,3.98,4.72
		c2.64,0,5.85-1.12,8.36-2.87c-0.17-0.96-0.09-2,0.21-3.92L85.72,279.79z"/>
	<path class="st0" d="M115.67,255.9h16.62l-0.86,5.52c5.25-4.47,9.27-6.23,14.55-6.23c9.27,0,13.59,5.67,12.14,15.02l-4.32,27.89
		h-16.62l3.58-23.09c0.65-4.23-0.57-6.15-3.84-6.15c-2.63,0-5.02,1.44-7.34,4.55l-3.82,24.7h-16.62L115.67,255.9z"/>
	<path class="st0" d="M170.91,243.59h16.62l-4.16,26.85l15.91-14.55h20.54l-20.44,17.98l16.39,24.21h-20.86l-12.64-19.5h-0.16
		l-3.02,19.5h-16.62L170.91,243.59z"/>
	<g>
		<path class="st0" d="M229.7,243.59h19.09l-8.44,54.49h-19.09L229.7,243.59z"/>
		<path class="st0" d="M258.07,243.59h27.33c21.09,0,27.19,15.34,25.23,27.97c-1.92,12.38-11.7,26.53-30.24,26.53h-30.76
			L258.07,243.59z M275.77,285.15c9.27,0,14.37-4.56,15.88-14.3c1.11-7.19-1.07-14.31-11.37-14.31h-5.12l-4.43,28.61H275.77z"/>
	</g>
</g>
</svg>
